<svg version="1.1" id="Layer_1" xmlns="http://www.w3.org/2000/svg" xmlns:xlink="http://www.w3.org/1999/xlink" x="0px" y="0px"
	 width="100%" viewBox="50 50 412 412" enable-background="new 0 0 512 512" xml:space="preserve">
<path fill="#FC985B" opacity="1.000000" stroke="none" 
	d="
M289.000000,513.000000 
	C267.979095,513.000000 246.958206,513.000000 225.790161,512.647339 
	C224.798553,511.866852 223.998184,511.235840 223.102997,511.041443 
	C209.186798,508.018951 195.120605,505.574707 181.366913,501.944336 
	C163.445099,497.213745 146.693619,489.460968 130.576080,480.266937 
	C113.645287,470.609070 97.779999,459.506836 83.686714,446.059479 
	C75.420647,438.172302 67.409515,429.945160 59.988998,421.267792 
	C54.126335,414.412109 49.339287,406.636627 44.538826,399.233643 
	C67.666252,399.116486 90.329399,399.035309 113.455353,399.037994 
	C140.234924,399.103119 166.551712,399.084381 192.924683,399.525940 
	C193.068008,406.653503 193.155151,413.320709 193.193222,420.454834 
	C193.144150,429.671143 193.144150,438.420532 193.144150,447.700470 
	C182.906631,447.700470 173.306320,447.746063 163.706741,447.681000 
	C158.985168,447.649017 156.578537,449.794098 156.571091,454.568634 
	C156.568268,456.383575 156.461670,458.198364 156.324585,460.442017 
	C156.103790,471.263031 157.085831,472.257721 167.512314,472.257843 
	C225.747528,472.258545 283.982727,472.258209 342.217957,472.258179 
	C355.047028,472.258179 355.504822,471.777618 354.881958,458.600281 
	C354.928162,448.582733 354.036224,447.697266 344.361145,447.692078 
	C337.385376,447.688354 330.405670,447.551331 323.435608,447.750336 
	C320.133698,447.844604 319.126740,446.664734 319.193451,443.435516 
	C319.354553,435.635162 319.192902,427.828186 319.315582,419.617310 
	C319.635895,412.481842 319.802002,405.752899 320.438416,399.043579 
	C370.608704,399.088959 420.308655,399.114716 469.983459,399.494476 
	C457.206909,419.819153 441.026093,436.711456 423.294250,452.272522 
	C409.405823,464.460693 394.230988,474.805542 377.973328,483.401184 
	C350.678406,497.832367 321.826202,507.722717 290.943604,511.084351 
	C290.234619,511.161499 289.645172,512.336853 289.000000,513.000000 
z"/>
<path fill="#000000" opacity="1.000000" stroke="none" 
	d="
M44.074543,399.269623 
	C49.339287,406.636627 54.126335,414.412109 59.988998,421.267792 
	C67.409515,429.945160 75.420647,438.172302 83.686714,446.059479 
	C97.779999,459.506836 113.645287,470.609070 130.576080,480.266937 
	C146.693619,489.460968 163.445099,497.213745 181.366913,501.944336 
	C195.120605,505.574707 209.186798,508.018951 223.102997,511.041443 
	C223.998184,511.235840 224.798553,511.866852 225.321503,512.647339 
	C150.406296,513.000000 75.812599,513.000000 1.000000,513.000000 
	C1.000000,438.645905 1.000000,364.291626 1.351178,289.144226 
	C2.134550,289.519470 2.725416,290.655121 2.973856,291.861298 
	C4.973193,301.568268 6.908007,311.288483 8.902351,321.408600 
	C9.226062,323.094421 9.359602,324.432770 9.816735,325.649597 
	C15.496275,340.767395 20.553186,356.169006 27.170179,370.867401 
	C31.663595,380.848602 38.362144,389.837158 44.074543,399.269623 
z"/>
<path fill="#000000" opacity="1.000000" stroke="none" 
	d="
M289.468628,513.000000 
	C289.645172,512.336853 290.234619,511.161499 290.943604,511.084351 
	C321.826202,507.722717 350.678406,497.832367 377.973328,483.401184 
	C394.230988,474.805542 409.405823,464.460693 423.294250,452.272522 
	C441.026093,436.711456 457.206909,419.819153 470.298157,399.339600 
	C482.354614,382.145203 491.309601,364.030548 498.044617,344.842529 
	C500.752167,337.128662 502.668518,329.137054 505.291260,321.052948 
	C507.436890,310.688202 509.209412,300.537354 511.106384,290.409790 
	C511.212830,289.841583 512.345154,289.465485 513.000000,289.000000 
	C513.000000,363.593719 513.000000,438.187408 513.000000,513.000000 
	C438.645905,513.000000 364.291626,513.000000 289.468628,513.000000 
z"/>
<path fill="#FD995B" opacity="1.000000" stroke="none" 
	d="
M225.000000,1.000002 
	C246.020889,1.000000 267.041779,1.000000 288.207031,1.351276 
	C289.194458,2.132048 289.993225,2.769842 290.887177,2.959837 
	C304.658020,5.886642 318.616028,8.110162 332.181122,11.786480 
	C353.222015,17.488838 372.845917,26.816694 391.371338,38.248753 
	C398.920502,42.907364 405.815979,48.625244 412.543182,53.930305 
	C314.527130,54.010437 216.976776,54.020615 119.426430,54.038876 
	C117.598701,54.039215 115.770988,54.135437 113.489662,54.113869 
	C109.027557,53.976753 105.019058,53.912693 101.136620,53.536633 
	C113.034958,45.513107 124.308960,36.865078 136.681671,30.282064 
	C163.706268,15.903375 192.440323,6.256315 223.076630,2.917573 
	C223.779068,2.841021 224.361557,1.663812 225.000000,1.000002 
z"/>
<path fill="#000000" opacity="1.000000" stroke="none" 
	d="
M413.008881,53.861183 
	C405.815979,48.625244 398.920502,42.907364 391.371338,38.248753 
	C372.845917,26.816694 353.222015,17.488838 332.181122,11.786480 
	C318.616028,8.110162 304.658020,5.886642 290.887177,2.959837 
	C289.993225,2.769842 289.194458,2.132048 288.675720,1.351276 
	C363.593719,1.000000 438.187408,1.000000 513.000000,1.000000 
	C513.000000,75.354088 513.000000,149.708389 512.655762,224.858841 
	C511.540985,221.940903 510.825684,218.214325 509.988373,214.515366 
	C508.342590,207.244675 506.629028,199.989349 504.979370,192.278748 
	C505.010040,151.005737 504.896149,110.181145 505.084320,69.357948 
	C505.125702,60.378788 499.852386,53.672710 489.483185,53.845966 
	C463.998779,54.271782 438.501190,53.907612 413.008881,53.861183 
z"/>
<path fill="#000000" opacity="1.000000" stroke="none" 
	d="
M224.531342,1.000002 
	C224.361557,1.663812 223.779068,2.841021 223.076630,2.917573 
	C192.440323,6.256315 163.706268,15.903375 136.681671,30.282064 
	C124.308960,36.865078 113.034958,45.513107 100.671211,53.590046 
	C74.757881,53.970398 49.436024,53.989033 24.114166,53.998486 
	C13.701828,54.002369 9.006790,58.678223 8.996225,69.059151 
	C8.954178,110.372444 8.906867,151.685730 8.522425,193.193466 
	C6.431167,203.286850 4.699496,213.189621 2.854558,223.071243 
	C2.777884,223.481918 1.642272,223.694916 1.000000,224.000000 
	C1.000000,149.739456 1.000000,75.478920 1.000000,1.000000 
	C75.354088,1.000000 149.708389,1.000000 224.531342,1.000002 
z"/>
<path fill="#FD995B" opacity="1.000000" stroke="none" 
	d="
M1.000000,224.468658 
	C1.642272,223.694916 2.777884,223.481918 2.854558,223.071243 
	C4.699496,213.189621 6.431167,203.286850 8.585789,193.660019 
	C8.946337,236.289642 8.904439,278.647156 8.862542,321.004669 
	C6.908007,311.288483 4.973193,301.568268 2.973856,291.861298 
	C2.725416,290.655121 2.134550,289.519470 1.351178,288.675568 
	C1.000000,267.645782 1.000000,246.291550 1.000000,224.468658 
z"/>
<path fill="#FD995B" opacity="1.000000" stroke="none" 
	d="
M504.943481,192.727661 
	C506.629028,199.989349 508.342590,207.244675 509.988373,214.515366 
	C510.825684,218.214325 511.540985,221.940903 512.655762,225.327499 
	C513.000000,246.020889 513.000000,267.041779 513.000000,288.531342 
	C512.345154,289.465485 511.212830,289.841583 511.106384,290.409790 
	C509.209412,300.537354 507.436890,310.688202 505.162354,320.579681 
	C504.661041,278.611511 504.633057,236.897644 504.622925,195.183792 
	C504.622711,194.365112 504.831970,193.546371 504.943481,192.727661 
z"/>
<path fill="#2B428C" opacity="1.000000" stroke="none" 
	d="
M504.979401,192.278748 
	C504.831970,193.546371 504.622711,194.365112 504.622925,195.183792 
	C504.633057,236.897644 504.661041,278.611511 504.816040,320.798615 
	C502.668518,329.137054 500.752167,337.128662 498.044617,344.842529 
	C491.309601,364.030548 482.354614,382.145203 470.323303,398.985596 
	C420.308655,399.114716 370.608704,399.088959 319.973969,399.046173 
	C276.982300,399.041290 234.925400,399.053467 192.868484,399.065643 
	C166.551712,399.084381 140.234924,399.103119 113.226555,398.795959 
	C106.292366,395.463959 103.680809,390.529205 103.931976,383.598511 
	C104.214523,375.801636 103.975784,367.985901 104.429214,360.107239 
	C154.628235,360.023743 204.361847,360.014191 254.095459,359.988495 
	C256.084290,359.987488 258.073090,359.833099 260.524017,359.801361 
	C269.971619,359.818146 278.957123,359.783691 288.296173,359.845825 
	C289.378906,359.911804 290.108093,359.881195 291.314056,359.897705 
	C299.836792,359.903076 307.882751,359.861298 316.400696,359.884155 
	C324.942169,359.881592 333.011597,359.814392 341.542419,359.793549 
	C362.991302,359.871643 383.978729,359.903412 405.422363,359.942383 
	C408.642822,359.934143 411.407135,359.918732 414.628662,359.875183 
	C434.572784,359.856354 454.059692,359.871887 473.546631,359.872131 
	C482.382385,359.872253 483.999268,358.244873 483.999390,349.413055 
	C484.000549,261.471222 484.000488,173.529373 483.999573,85.587524 
	C483.999481,76.450058 482.556030,75.036781 473.211975,75.036690 
	C352.291931,75.035538 231.371918,75.036804 110.451881,75.028496 
	C108.290665,75.028343 106.129448,74.918121 103.976242,74.410614 
	C103.328125,65.368004 104.568352,57.729088 113.943268,54.186924 
	C115.770988,54.135437 117.598701,54.039215 119.426430,54.038876 
	C216.976776,54.020615 314.527130,54.010437 412.543182,53.930302 
	C438.501190,53.907612 463.998779,54.271782 489.483185,53.845966 
	C499.852386,53.672710 505.125702,60.378788 505.084320,69.357948 
	C504.896149,110.181145 505.010040,151.005737 504.979401,192.278748 
M242.995407,376.789307 
	C243.288620,379.405457 243.005615,382.264496 243.986313,384.590820 
	C246.614868,390.826050 254.383118,394.169922 260.635010,392.258514 
	C267.861908,390.049072 271.938019,383.678497 270.944427,376.145996 
	C270.119690,369.893616 264.007812,364.387817 257.513550,364.047058 
	C250.902237,363.700165 244.432541,369.004364 242.995407,376.789307 
z"/>
<path fill="#1F3079" opacity="1.000000" stroke="none" 
	d="
M113.489662,54.113869 
	C104.568352,57.729088 103.328125,65.368004 103.991821,74.489922 
	C103.999374,75.017883 104.024628,75.177536 103.561340,75.102905 
	C82.106499,75.020630 61.114956,75.011436 40.123413,75.006042 
	C30.707205,75.003616 29.584723,76.135727 29.583738,85.743736 
	C29.578531,136.556763 29.578957,187.369797 29.590269,238.182816 
	C29.590677,240.011337 29.725395,241.839813 29.688736,243.983459 
	C27.468849,252.206207 27.585421,260.095490 29.704979,268.497559 
	C29.617077,280.524628 29.588112,292.021942 29.582470,303.519257 
	C29.574619,319.515961 29.537312,335.512909 29.610857,351.509277 
	C29.638012,357.415497 31.795761,359.934509 37.011562,359.941956 
	C59.337154,359.973755 81.662933,359.875214 103.948334,359.910339 
	C103.908028,359.996490 103.963814,360.178375 103.963814,360.178375 
	C103.975784,367.985901 104.214523,375.801636 103.931976,383.598511 
	C103.680809,390.529205 106.292366,395.463959 112.763748,398.712097 
	C90.329399,399.035309 67.666252,399.116486 44.538822,399.233643 
	C38.362144,389.837158 31.663595,380.848602 27.170179,370.867401 
	C20.553186,356.169006 15.496275,340.767395 9.816735,325.649597 
	C9.359602,324.432770 9.226062,323.094421 8.902351,321.408600 
	C8.904439,278.647156 8.946337,236.289642 8.924870,193.465576 
	C8.906867,151.685730 8.954178,110.372444 8.996225,69.059151 
	C9.006790,58.678223 13.701828,54.002369 24.114166,53.998486 
	C49.436024,53.989033 74.757881,53.970398 100.545151,53.902050 
	C105.019058,53.912693 109.027557,53.976753 113.489662,54.113869 
z"/>
<path fill="#2A428C" opacity="1.000000" stroke="none" 
	d="
M319.161377,420.023865 
	C319.192902,427.828186 319.354553,435.635162 319.193451,443.435516 
	C319.126740,446.664734 320.133698,447.844604 323.435608,447.750336 
	C330.405670,447.551331 337.385376,447.688354 344.361145,447.692078 
	C354.036224,447.697266 354.928162,448.582733 354.587830,458.798828 
	C351.500885,460.284119 348.767975,461.885345 346.031189,461.891937 
	C286.536316,462.035370 227.040924,462.036804 167.545929,461.916077 
	C163.830139,461.908539 160.116837,460.675903 156.402374,460.013245 
	C156.461670,458.198364 156.568268,456.383575 156.571091,454.568634 
	C156.578537,449.794098 158.985168,447.649017 163.706741,447.681000 
	C173.306320,447.746063 182.906631,447.700470 193.144150,447.700470 
	C193.144150,438.420532 193.144150,429.671143 193.645981,420.457428 
	C235.819000,420.003357 277.490173,420.013611 319.161377,420.023865 
z"/>
<path fill="#1C2E7A" opacity="1.000000" stroke="none" 
	d="
M319.315582,419.617310 
	C277.490173,420.013611 235.819000,420.003357 193.695053,419.990540 
	C193.155151,413.320709 193.068008,406.653503 192.924683,399.525940 
	C234.925400,399.053467 276.982300,399.041290 319.503662,399.026550 
	C319.802002,405.752899 319.635895,412.481842 319.315582,419.617310 
z"/>
<path fill="#1C2E7A" opacity="1.000000" stroke="none" 
	d="
M156.324585,460.442017 
	C160.116837,460.675903 163.830139,461.908539 167.545929,461.916077 
	C227.040924,462.036804 286.536316,462.035370 346.031189,461.891937 
	C348.767975,461.885345 351.500885,460.284119 354.529724,459.227051 
	C355.504822,471.777618 355.047028,472.258179 342.217957,472.258179 
	C283.982727,472.258209 225.747528,472.258545 167.512314,472.257843 
	C157.085831,472.257721 156.103790,471.263031 156.324585,460.442017 
z"/>
<path fill="#FEDD40" opacity="1.000000" stroke="none" 
	d="
M103.983803,74.938568 
	C106.129448,74.918121 108.290665,75.028343 110.451881,75.028496 
	C231.371918,75.036804 352.291931,75.035538 473.211975,75.036690 
	C482.556030,75.036781 483.999481,76.450058 483.999573,85.587524 
	C484.000488,173.529373 484.000549,261.471222 483.999390,349.413055 
	C483.999268,358.244873 482.382385,359.872253 473.546631,359.872131 
	C454.059692,359.871887 434.572784,359.856354 414.851105,359.572571 
	C420.789337,358.026093 426.962311,356.754150 433.555786,355.419617 
	C440.454895,354.083710 446.961243,352.935333 453.405487,351.507019 
	C462.514099,349.488159 466.403168,343.406525 464.609619,334.352844 
	C463.583374,329.172577 462.544006,323.994843 461.492584,318.392700 
	C461.122467,316.181152 460.772644,314.392426 460.417877,312.604645 
	C452.264557,271.515930 444.140381,230.421417 435.944244,189.341248 
	C431.927185,169.207230 427.776489,149.099854 423.658234,128.593246 
	C422.377594,121.858330 421.157593,115.503929 419.864807,109.164375 
	C417.954468,99.796669 411.725769,95.662392 402.462921,97.548302 
	C395.960632,98.872162 389.457031,100.189781 382.572784,101.439987 
	C377.484100,102.277451 372.791595,103.273750 368.065704,104.071938 
	C361.069000,105.253632 354.313232,106.738625 351.050629,113.817001 
	C348.797516,104.021721 345.012604,100.965805 335.377350,100.949722 
	C328.906830,100.938927 322.436096,101.031548 315.505066,100.997002 
	C308.384369,100.918182 301.722900,100.843536 295.063965,100.941544 
	C286.568420,101.066582 281.296021,106.154976 281.134521,114.565041 
	C280.997162,121.719398 281.186371,128.880035 281.149658,136.497757 
	C281.054535,200.288147 281.039856,263.618683 281.036377,326.949188 
	C281.036316,327.943573 281.174042,328.937927 281.185669,330.401245 
	C281.111664,335.191132 281.273102,339.521240 281.046082,343.830841 
	C280.712067,350.171814 282.878357,355.176697 288.098755,358.993835 
	C287.989594,359.408081 287.966095,359.578674 287.942596,359.749268 
	C278.957123,359.783691 269.971619,359.818146 260.522278,359.535583 
	C260.033112,358.865112 260.007843,358.511688 260.307678,358.022156 
	C262.505005,356.337982 265.105896,355.142639 266.068542,353.154236 
	C267.325500,350.557770 268.073090,347.151428 267.451355,344.460541 
	C267.165985,343.225464 263.124847,342.752411 260.732422,342.150146 
	C259.328217,341.796722 257.816956,341.868652 256.330383,341.297638 
	C256.322205,329.647095 256.337494,318.448181 256.761353,307.131104 
	C258.823181,306.971252 260.476593,306.933441 262.129730,306.886993 
	C267.518951,306.735596 269.249481,304.433533 267.884613,299.236450 
	C266.450470,293.775604 261.367004,290.183960 254.616180,290.089966 
	C244.689621,289.951721 234.761307,289.940186 225.091339,289.647583 
	C229.698273,287.482269 232.592636,284.399567 233.340729,279.522339 
	C233.907715,275.825897 232.552094,273.796173 228.679611,273.707214 
	C226.210190,273.650513 223.741409,273.566040 221.358276,273.286530 
	C221.544601,272.783173 221.542786,272.487946 221.582245,271.801178 
	C221.783173,260.352295 221.840652,249.295593 222.349915,238.179993 
	C224.296417,238.101746 225.791290,238.090927 227.285812,238.061493 
	C232.867126,237.951569 235.014862,235.616592 232.779739,230.642578 
	C231.261581,227.264099 227.849716,224.736572 225.792480,221.743561 
	C235.751877,221.631973 245.206116,221.731964 254.654327,221.538376 
	C262.128937,221.385193 267.065399,217.496063 268.102905,211.426895 
	C268.907684,206.719101 267.523560,205.057098 262.686188,204.913712 
	C260.700806,204.854858 258.715790,204.785477 256.762726,204.272308 
	C256.796082,201.333542 256.847687,198.842163 256.789398,196.353363 
	C256.588135,187.758087 256.348511,179.163712 256.169189,170.437241 
	C256.214935,170.305496 256.325012,170.049255 256.639282,169.838043 
	C258.776459,169.559601 260.599182,169.485748 262.422363,169.426453 
	C267.641174,169.256775 269.213684,167.162964 267.933685,162.078552 
	C266.553711,156.597153 261.660156,152.981033 255.196655,152.949417 
	C241.230621,152.881149 227.264023,152.910645 213.297668,152.928986 
	C190.525452,152.958893 167.753281,153.011871 144.521362,152.963760 
	C130.705215,152.787079 117.348763,152.701752 103.995239,152.171799 
	C104.006989,126.210640 104.015808,100.694084 104.024628,75.177536 
	C104.024628,75.177536 103.999374,75.017883 103.983803,74.938568 
z"/>
<path fill="#FEDC40" opacity="1.000000" stroke="none" 
	d="
M404.966187,359.935181 
	C383.978729,359.903412 362.991302,359.871643 341.825745,359.626099 
	C348.112793,356.866364 351.041351,352.016876 350.943420,345.178650 
	C350.870270,340.073364 350.821899,334.967712 350.837036,329.409302 
	C350.932281,276.811493 350.963470,224.666672 350.965729,172.521835 
	C350.966248,160.363098 350.868591,148.204346 350.865204,135.580933 
	C350.980621,131.261948 351.046936,127.407661 351.376648,123.869377 
	C353.052338,130.854858 354.464661,137.524338 355.890594,144.606598 
	C359.063934,161.398148 362.160431,177.789383 365.396698,194.152969 
	C371.901367,227.042358 378.453400,259.922455 385.045898,292.794342 
	C387.676147,305.909515 390.465179,318.992889 393.138733,332.487122 
	C393.455780,334.810974 393.749817,336.753632 394.187805,338.663208 
	C396.017731,346.641602 396.063904,355.536957 404.966187,359.935181 
z"/>
<path fill="#1063A8" opacity="1.000000" stroke="none" 
	d="
M405.422363,359.942352 
	C396.063904,355.536957 396.017731,346.641602 394.187805,338.663208 
	C393.749817,336.753632 393.455780,334.810974 393.558960,332.472290 
	C405.349823,330.047333 416.677277,328.033630 427.999451,326.447571 
	C428.240753,328.825012 428.389374,330.793213 428.751221,332.721405 
	C430.176178,340.315155 431.668182,347.896332 433.135284,355.482178 
	C426.962311,356.754150 420.789337,358.026093 414.393921,359.600708 
	C411.407135,359.918732 408.642822,359.934143 405.422363,359.942352 
z"/>
<path fill="#E80254" opacity="1.000000" stroke="none" 
	d="
M288.184387,358.750153 
	C282.878357,355.176697 280.712067,350.171814 281.046082,343.830841 
	C281.273102,339.521240 281.111664,335.191132 281.638062,330.415955 
	C293.444733,329.980652 304.737305,329.999573 316.024963,330.485962 
	C315.989624,340.575470 315.959137,350.197510 315.928650,359.819519 
	C307.882751,359.861298 299.836792,359.903076 291.118591,359.677307 
	C289.692352,359.189911 288.938385,358.970032 288.184387,358.750153 
z"/>
<path fill="#FF4255" opacity="1.000000" stroke="none" 
	d="
M316.400696,359.884155 
	C315.959137,350.197510 315.989624,340.575470 316.490051,330.458099 
	C328.227509,329.929230 339.494995,329.895752 350.762512,329.862244 
	C350.821899,334.967712 350.870270,340.073364 350.943420,345.178650 
	C351.041351,352.016876 348.112793,356.866364 341.364319,359.579742 
	C333.011597,359.814392 324.942169,359.881592 316.400696,359.884155 
z"/>
<path fill="#1C2E7A" opacity="1.000000" stroke="none" 
	d="
M243.002960,376.363373 
	C244.432541,369.004364 250.902237,363.700165 257.513550,364.047058 
	C264.007812,364.387817 270.119690,369.893616 270.944427,376.145996 
	C271.938019,383.678497 267.861908,390.049072 260.635010,392.258514 
	C254.383118,394.169922 246.614868,390.826050 243.986313,384.590820 
	C243.005615,382.264496 243.288620,379.405457 243.002960,376.363373 
z"/>
<path fill="#D4BE4F" opacity="1.000000" stroke="none" 
	d="
M259.982574,358.158234 
	C260.007843,358.511688 260.033112,358.865112 260.060120,359.484375 
	C258.073090,359.833099 256.084290,359.987488 254.095459,359.988495 
	C204.361847,360.014191 154.628235,360.023743 104.429214,360.107239 
	C103.963814,360.178375 103.908028,359.996490 103.933197,359.748657 
	C103.958374,359.500793 103.933647,359.176849 104.403168,359.106476 
	C118.875999,358.940399 132.879303,358.844696 147.355347,358.805420 
	C182.908829,358.866852 217.989594,358.885376 253.070297,358.845917 
	C255.374634,358.843353 257.678497,358.397736 259.982574,358.158234 
z"/>
<path fill="#D4BE4F" opacity="1.000000" stroke="none" 
	d="
M288.098755,358.993835 
	C288.938385,358.970032 289.692352,359.189911 290.641785,359.630188 
	C290.108093,359.881195 289.378906,359.911804 288.296173,359.845825 
	C287.966095,359.578674 287.989594,359.408081 288.098755,358.993835 
z"/>
<path fill="#FEB332" opacity="1.000000" stroke="none" 
	d="
M103.561340,75.102905 
	C104.015808,100.694084 104.006989,126.210640 103.539612,152.260681 
	C100.752686,152.827759 98.420982,152.792664 96.096519,152.906113 
	C81.790375,153.604431 71.531746,160.564743 65.844879,173.577667 
	C60.122856,186.671036 61.975220,199.331161 71.778450,209.577438 
	C76.494278,214.506378 83.527275,217.218353 89.012314,220.987671 
	C83.517677,221.088028 78.521179,221.105057 73.525841,221.190460 
	C68.702660,221.272903 63.845970,221.099960 59.064709,221.609192 
	C44.982548,223.109085 35.838451,231.383835 29.797518,243.668320 
	C29.725395,241.839813 29.590677,240.011337 29.590269,238.182816 
	C29.578957,187.369797 29.578531,136.556763 29.583738,85.743736 
	C29.584723,76.135727 30.707205,75.003616 40.123413,75.006042 
	C61.114956,75.011436 82.106499,75.020630 103.561340,75.102905 
z"/>
<path fill="#FEB333" opacity="1.000000" stroke="none" 
	d="
M103.933647,359.176849 
	C103.933647,359.176849 103.958374,359.500793 103.973511,359.662476 
	C81.662933,359.875214 59.337154,359.973755 37.011562,359.941956 
	C31.795761,359.934509 29.638012,357.415497 29.610857,351.509277 
	C29.537312,335.512909 29.574619,319.515961 29.582470,303.519257 
	C29.588112,292.021942 29.617077,280.524628 29.973412,268.830322 
	C38.023029,283.762848 50.250145,290.953125 67.326157,290.197083 
	C75.259941,289.845825 83.225899,290.221375 90.866371,290.470032 
	C76.129898,294.239929 66.750191,303.100494 63.676243,317.685699 
	C60.898502,330.865570 65.238449,342.006561 75.435844,350.730927 
	C83.633629,357.744537 93.512939,359.466583 103.933647,359.176849 
z"/>
<path fill="#EA369C" opacity="1.000000" stroke="none" 
	d="
M91.177277,290.267426 
	C83.225899,290.221375 75.259941,289.845825 67.326157,290.197083 
	C50.250145,290.953125 38.023029,283.762848 30.042751,268.300537 
	C27.585421,260.095490 27.468849,252.206207 29.688736,243.983459 
	C35.838451,231.383835 44.982548,223.109085 59.064709,221.609192 
	C63.845970,221.099960 68.702660,221.272903 73.525841,221.190460 
	C78.521179,221.105057 83.517677,221.088028 89.381622,220.970398 
	C91.494858,220.955643 92.740135,221.011581 94.262718,221.253876 
	C95.647476,221.497299 96.754921,221.554398 98.299553,221.703156 
	C100.518608,221.749710 102.300491,221.704590 104.383408,221.736725 
	C105.092247,221.762299 105.500046,221.710617 106.285110,221.732376 
	C107.423729,221.893768 108.185081,221.981720 108.685776,222.295959 
	C105.818741,223.575638 102.725166,224.063034 100.707153,225.800018 
	C96.477486,229.440643 92.813904,233.738937 88.615074,237.845062 
	C87.905403,238.013550 87.498535,238.104172 86.621704,238.122040 
	C79.489861,238.029297 72.827721,237.961884 66.166191,238.000732 
	C56.890381,238.054840 49.096466,244.700500 48.033840,253.370605 
	C46.885899,262.736816 52.672009,271.656158 62.325329,273.038177 
	C70.462486,274.203156 78.871750,273.467499 87.467506,273.636047 
	C88.177689,273.806366 88.580925,273.913849 89.028824,274.372131 
	C90.636406,276.763000 91.794273,279.466980 93.840279,280.715210 
	C99.365273,284.085968 105.268311,286.837067 110.554749,289.899597 
	C103.784531,290.065918 97.480904,290.166687 91.177277,290.267426 
z"/>
<path fill="#C00551" opacity="1.000000" stroke="none" 
	d="
M350.837067,329.409302 
	C339.494995,329.895752 328.227509,329.929230 316.494934,329.990601 
	C304.737305,329.999573 293.444733,329.980652 281.699829,329.947021 
	C281.174042,328.937927 281.036316,327.943573 281.036377,326.949188 
	C281.039856,263.618683 281.054535,200.288147 281.603058,136.485870 
	C293.465027,135.971085 304.792175,135.928040 316.580078,135.902252 
	C328.299286,135.961548 339.557709,136.003571 350.816101,136.045609 
	C350.868591,148.204346 350.966248,160.363098 350.965729,172.521835 
	C350.963470,224.666672 350.932281,276.811493 350.837067,329.409302 
M305.571869,161.211166 
	C314.531281,161.204224 323.490723,161.196548 332.450134,161.190674 
	C336.269165,161.188171 338.577362,159.132050 338.584412,155.484070 
	C338.590881,152.114426 336.458191,149.914230 332.856049,149.898468 
	C321.574463,149.849121 310.291840,149.825562 299.010986,149.933945 
	C295.668854,149.966064 293.813324,152.034683 293.740234,155.344269 
	C293.661957,158.889908 295.511017,160.942719 299.125305,161.151215 
	C300.944946,161.256180 302.774078,161.196655 305.571869,161.211166 
M300.825165,178.515030 
	C300.967560,182.452179 303.226898,184.190643 306.945770,184.226288 
	C312.942261,184.283783 318.939697,184.254547 324.936737,184.245819 
	C328.615906,184.240463 331.165863,182.721802 331.247711,178.759827 
	C331.334259,174.569443 328.817505,172.848328 324.855133,172.852188 
	C319.024628,172.857864 313.194122,172.854294 307.363617,172.855484 
	C304.002899,172.856186 301.504059,174.015167 300.825165,178.515030 
z"/>
<path fill="#2B438C" opacity="1.000000" stroke="none" 
	d="
M428.004700,326.019897 
	C416.677277,328.033630 405.349823,330.047333 393.602173,332.075867 
	C390.465179,318.992889 387.676147,305.909515 385.045898,292.794342 
	C378.453400,259.922455 371.901367,227.042358 365.396698,194.152969 
	C362.160431,177.789383 359.063934,161.398148 356.005310,144.238968 
	C357.074799,142.953171 357.990570,142.197845 359.019745,141.981186 
	C369.039703,139.871918 379.078583,137.852768 389.492004,135.779694 
	C401.143372,133.494446 412.414856,131.237427 423.686279,128.980408 
	C427.776489,149.099854 431.927185,169.207230 435.944244,189.341248 
	C444.140381,230.421417 452.264557,271.515930 460.417877,312.604645 
	C460.772644,314.392426 461.122467,316.181152 461.097321,318.557312 
	C449.814911,321.436707 438.909790,323.728302 428.004700,326.019897 
M395.990479,160.500839 
	C400.704376,159.575119 405.448456,158.777939 410.122375,157.681763 
	C413.668365,156.850113 416.412964,154.820190 415.526855,150.707291 
	C414.681641,146.784317 411.658539,145.478622 407.896179,146.200867 
	C397.647705,148.168289 387.406464,150.179718 377.192322,152.316833 
	C373.468323,153.096008 370.436584,155.050201 371.408417,159.469818 
	C372.349365,163.749008 375.692719,164.562698 379.567352,163.813995 
	C384.772339,162.808258 389.967896,161.753769 395.990479,160.500839 
M412.103302,172.580536 
	C409.906067,171.772369 407.604462,170.080383 405.531616,170.325180 
	C399.788025,171.003525 394.143341,172.506439 388.452698,173.649338 
	C384.673096,174.408447 382.328552,176.402054 382.978088,180.519989 
	C383.659546,184.840271 386.858368,185.581985 390.479492,184.981583 
	C396.039673,184.059662 401.577118,182.980713 407.094543,181.826584 
	C412.158234,180.767365 413.395966,178.702316 412.103302,172.580536 
z"/>
<path fill="#FFFEFE" opacity="1.000000" stroke="none" 
	d="
M88.984161,274.021301 
	C88.580925,273.913849 88.177689,273.806366 87.384109,273.299500 
	C81.031174,261.314728 81.408272,249.747269 87.091675,238.194778 
	C87.498535,238.104172 87.905403,238.013550 89.079590,237.951920 
	C115.958282,238.009216 142.069687,238.019928 168.181015,238.072006 
	C185.807007,238.107162 203.432877,238.200623 221.057953,238.714874 
	C221.184311,250.172287 221.311539,261.182800 221.438782,272.193329 
	C221.542786,272.487946 221.544601,272.783173 220.866333,273.339966 
	C178.673096,273.627563 137.057724,273.649170 95.442360,273.695160 
	C93.289513,273.697510 91.136887,273.907837 88.984161,274.021301 
z"/>
<path fill="#FFFFFF" opacity="1.000000" stroke="none" 
	d="
M256.352814,307.249268 
	C256.337494,318.448181 256.322205,329.647095 255.848724,341.440979 
	C216.904663,342.061279 178.418732,342.077179 139.932861,342.122498 
	C134.275116,342.129150 128.617538,342.275299 122.717896,342.263611 
	C122.313446,342.111023 122.150986,342.051697 121.871231,341.652954 
	C115.607643,329.836334 116.019814,318.396271 122.199081,306.907898 
	C122.613953,306.767395 122.778275,306.706482 123.405930,306.741333 
	C166.052078,306.853790 208.234894,306.865570 250.417694,306.902344 
	C252.396164,306.904083 254.374451,307.128510 256.352814,307.249268 
z"/>
<path fill="#FEFEFE" opacity="1.000000" stroke="none" 
	d="
M256.325012,170.049255 
	C256.325012,170.049255 256.214935,170.305496 256.119934,170.947876 
	C256.002655,179.750412 256.061737,187.912033 255.914841,196.069931 
	C255.862061,199.000854 255.313110,201.922867 254.523376,204.877686 
	C230.301178,204.909225 206.546219,204.888351 182.791336,204.922134 
	C162.862213,204.950470 142.933212,205.042557 122.777351,205.017303 
	C122.550552,204.928207 122.079849,204.801941 121.984314,204.460693 
	C120.363876,199.235123 117.983948,194.430588 117.518921,189.447372 
	C116.858055,182.365692 117.602211,175.151642 123.735474,169.621185 
	C166.596100,169.571274 209.008087,169.560181 251.420059,169.580704 
	C253.055115,169.581497 254.690033,169.886185 256.325012,170.049255 
z"/>
<path fill="#1B2D66" opacity="1.000000" stroke="none" 
	d="
M122.079849,204.801941 
	C122.079849,204.801941 122.550552,204.928207 122.930359,205.312469 
	C127.830681,213.055603 134.519196,217.607452 142.606628,220.601288 
	C139.778793,220.992828 137.050125,220.931519 134.325073,221.004761 
	C127.223282,221.195602 120.123077,221.445419 112.618912,221.748199 
	C111.125870,221.906357 110.036148,221.988022 108.946426,222.069687 
	C108.185081,221.981720 107.423729,221.893768 106.124527,221.599823 
	C105.085243,221.482361 104.583809,221.570923 104.082367,221.659485 
	C102.300491,221.704590 100.518608,221.749710 98.011353,221.541458 
	C96.185783,221.214554 95.085594,221.141037 93.985413,221.067520 
	C92.740135,221.011581 91.494858,220.955643 89.880272,220.916992 
	C83.527275,217.218353 76.494278,214.506378 71.778450,209.577438 
	C61.975220,199.331161 60.122856,186.671036 65.844879,173.577667 
	C71.531746,160.564743 81.790375,153.604431 96.096519,152.906113 
	C98.420982,152.792664 100.752686,152.827759 103.536682,152.705292 
	C117.348763,152.701752 130.705215,152.787079 144.242310,153.186508 
	C135.322128,155.956741 127.841965,160.658356 122.512161,169.037903 
	C114.896126,169.092606 107.735275,168.879364 100.591469,169.137589 
	C90.307716,169.509293 82.974777,177.075073 82.943352,186.929031 
	C82.912697,196.542221 90.028267,204.688751 99.143211,204.954422 
	C106.780792,205.177017 114.433716,204.872864 122.079849,204.801941 
z"/>
<path fill="#223279" opacity="1.000000" stroke="none" 
	d="
M113.022240,221.671722 
	C120.123077,221.445419 127.223282,221.195602 134.325073,221.004761 
	C137.050125,220.931519 139.778793,220.992828 142.606628,220.601288 
	C134.519196,217.607452 127.830681,213.055603 123.157158,205.401581 
	C142.933212,205.042557 162.862213,204.950470 182.791336,204.922134 
	C206.546219,204.888351 230.301178,204.909225 254.813416,204.964066 
	C255.957352,204.921448 256.343964,204.821167 256.730591,204.720886 
	C258.715790,204.785477 260.700806,204.854858 262.686188,204.913712 
	C267.523560,205.057098 268.907684,206.719101 268.102905,211.426895 
	C267.065399,217.496063 262.128937,221.385193 254.654327,221.538376 
	C245.206116,221.731964 235.751877,221.631973 225.399933,221.655975 
	C200.772812,221.643570 177.046021,221.626572 153.319229,221.626923 
	C139.886902,221.627136 126.454567,221.655838 113.022240,221.671722 
z"/>
<path fill="#3CC776" opacity="1.000000" stroke="none" 
	d="
M256.761353,307.131134 
	C254.374451,307.128510 252.396164,306.904083 250.417694,306.902344 
	C208.234894,306.865570 166.052078,306.853790 123.486038,306.422272 
	C127.993431,296.796661 136.679932,293.070740 146.420868,290.126709 
	C172.870056,289.998383 198.851898,289.936523 224.833740,289.874664 
	C234.761307,289.940186 244.689621,289.951721 254.616180,290.089966 
	C261.367004,290.183960 266.450470,293.775604 267.884613,299.236450 
	C269.249481,304.433533 267.518951,306.735596 262.129730,306.886993 
	C260.476593,306.933441 258.823181,306.971252 256.761353,307.131134 
z"/>
<path fill="#1C2E7A" opacity="1.000000" stroke="none" 
	d="
M122.974960,168.980591 
	C127.841965,160.658356 135.322128,155.956741 144.702026,153.277847 
	C167.753281,153.011871 190.525452,152.958893 213.297668,152.928986 
	C227.264023,152.910645 241.230621,152.881149 255.196655,152.949417 
	C261.660156,152.981033 266.553711,156.597153 267.933685,162.078552 
	C269.213684,167.162964 267.641174,169.256775 262.422363,169.426453 
	C260.599182,169.485748 258.776459,169.559601 256.639282,169.838043 
	C254.690033,169.886185 253.055115,169.581497 251.420059,169.580704 
	C209.008087,169.560181 166.596100,169.571274 123.690468,169.435013 
	C123.196823,169.293121 122.974960,168.980591 122.974960,168.980591 
z"/>
<path fill="#3DC775" opacity="1.000000" stroke="none" 
	d="
M122.959877,342.356873 
	C128.617538,342.275299 134.275116,342.129150 139.932861,342.122498 
	C178.418732,342.077179 216.904663,342.061279 255.872208,341.892578 
	C257.816956,341.868652 259.328217,341.796722 260.732422,342.150146 
	C263.124847,342.752411 267.165985,343.225464 267.451355,344.460541 
	C268.073090,347.151428 267.325500,350.557770 266.068542,353.154236 
	C265.105896,355.142639 262.505005,356.337982 260.307678,358.022156 
	C257.678497,358.397736 255.374634,358.843353 253.070297,358.845917 
	C217.989594,358.885376 182.908829,358.866852 147.064545,358.620789 
	C136.470566,356.025177 128.377792,351.139313 122.959877,342.356873 
z"/>
<path fill="#F964B2" opacity="1.000000" stroke="none" 
	d="
M112.618912,221.748199 
	C126.454567,221.655838 139.886902,221.627136 153.319229,221.626923 
	C177.046021,221.626572 200.772812,221.643570 224.892166,221.740906 
	C227.849716,224.736572 231.261581,227.264099 232.779739,230.642578 
	C235.014862,235.616592 232.867126,237.951569 227.285812,238.061493 
	C225.791290,238.090927 224.296417,238.101746 222.139725,238.158295 
	C221.477753,238.195496 221.058807,238.268021 221.058807,238.268005 
	C203.432877,238.200623 185.807007,238.107162 168.181015,238.072006 
	C142.069687,238.019928 115.958282,238.009216 89.382401,237.874054 
	C92.813904,233.738937 96.477486,229.440643 100.707153,225.800018 
	C102.725166,224.063034 105.818741,223.575638 108.685776,222.295959 
	C110.036148,221.988022 111.125870,221.906357 112.618912,221.748199 
z"/>
<path fill="#F964B2" opacity="1.000000" stroke="none" 
	d="
M225.091339,289.647583 
	C198.851898,289.936523 172.870056,289.998383 145.960114,290.055847 
	C133.695129,289.978943 122.358238,289.906464 111.021347,289.833984 
	C105.268311,286.837067 99.365273,284.085968 93.840279,280.715210 
	C91.794273,279.466980 90.636406,276.763000 89.028824,274.372131 
	C91.136887,273.907837 93.289513,273.697510 95.442360,273.695160 
	C137.057724,273.649170 178.673096,273.627563 220.780396,273.547485 
	C223.741409,273.566040 226.210190,273.650513 228.679611,273.707214 
	C232.552094,273.796173 233.907715,275.825897 233.340729,279.522339 
	C232.592636,284.399567 229.698273,287.482269 225.091339,289.647583 
z"/>
<path fill="#1063A7" opacity="1.000000" stroke="none" 
	d="
M389.112091,135.807922 
	C379.078583,137.852768 369.039703,139.871918 359.019745,141.981186 
	C357.990570,142.197845 357.074799,142.953171 355.991699,143.826172 
	C354.464661,137.524338 353.052338,130.854858 351.386932,123.454254 
	C351.122559,119.885048 351.111237,117.046982 351.099945,114.208916 
	C354.313232,106.738625 361.069000,105.253632 368.065704,104.071938 
	C372.791595,103.273750 377.484100,102.277451 382.591217,101.821274 
	C385.031311,113.451164 387.071686,124.629547 389.112091,135.807922 
z"/>
<path fill="#FF4155" opacity="1.000000" stroke="none" 
	d="
M351.050629,113.817001 
	C351.111237,117.046982 351.122559,119.885048 351.123535,123.138245 
	C351.046936,127.407661 350.980621,131.261948 350.865204,135.580933 
	C339.557709,136.003571 328.299286,135.961548 316.547546,135.446014 
	C316.024628,123.674309 315.995056,112.376106 315.965454,101.077896 
	C322.436096,101.031548 328.906830,100.938927 335.377350,100.949722 
	C345.012604,100.965805 348.797516,104.021721 351.050629,113.817001 
z"/>
<path fill="#E80154" opacity="1.000000" stroke="none" 
	d="
M315.505066,100.997009 
	C315.995056,112.376106 316.024628,123.674309 316.086761,135.428757 
	C304.792175,135.928040 293.465027,135.971085 281.684509,136.026001 
	C281.186371,128.880035 280.997162,121.719398 281.134521,114.565041 
	C281.296021,106.154976 286.568420,101.066582 295.063965,100.941544 
	C301.722900,100.843536 308.384369,100.918182 315.505066,100.997009 
z"/>
<path fill="#177CC0" opacity="1.000000" stroke="none" 
	d="
M389.492004,135.779694 
	C387.071686,124.629547 385.031311,113.451164 382.972473,101.891479 
	C389.457031,100.189781 395.960632,98.872162 402.462921,97.548302 
	C411.725769,95.662392 417.954468,99.796669 419.864807,109.164375 
	C421.157593,115.503929 422.377594,121.858330 423.658264,128.593246 
	C412.414856,131.237427 401.143372,133.494446 389.492004,135.779694 
z"/>
<path fill="#187CC0" opacity="1.000000" stroke="none" 
	d="
M427.999451,326.447540 
	C438.909790,323.728302 449.814911,321.436707 461.115265,318.980560 
	C462.544006,323.994843 463.583374,329.172577 464.609619,334.352844 
	C466.403168,343.406525 462.514099,349.488159 453.405487,351.507019 
	C446.961243,352.935333 440.454895,354.083710 433.555786,355.419617 
	C431.668182,347.896332 430.176178,340.315155 428.751221,332.721405 
	C428.389374,330.793213 428.240753,328.825012 427.999451,326.447540 
z"/>
<path fill="#BDBFC2" opacity="1.000000" stroke="none" 
	d="
M256.762726,204.272308 
	C256.343964,204.821167 255.957352,204.921448 255.280670,204.935333 
	C255.313110,201.922867 255.862061,199.000854 255.914841,196.069931 
	C256.061737,187.912033 256.002655,179.750412 256.074219,171.079620 
	C256.348511,179.163712 256.588135,187.758087 256.789398,196.353363 
	C256.847687,198.842163 256.796082,201.333542 256.762726,204.272308 
z"/>
<path fill="#CBC3C9" opacity="1.000000" stroke="none" 
	d="
M221.057953,238.714890 
	C221.058807,238.268021 221.477753,238.195496 221.687927,238.217194 
	C221.840652,249.295593 221.783173,260.352295 221.582245,271.801178 
	C221.311539,261.182800 221.184311,250.172287 221.057953,238.714890 
z"/>
<path fill="#31AA61" opacity="1.000000" stroke="none" 
	d="
M110.554749,289.899597 
	C122.358238,289.906464 133.695129,289.978943 145.492767,290.122284 
	C136.679932,293.070740 127.993431,296.796661 123.022705,306.326477 
	C122.778275,306.706482 122.613953,306.767395 121.746201,306.798645 
	C113.389984,306.831390 105.716759,306.566681 98.089798,307.042877 
	C89.452339,307.582153 83.004494,315.381226 83.000587,324.476288 
	C82.996689,333.547913 89.491890,341.461548 98.063957,341.929047 
	C106.016312,342.362732 114.011948,342.002838 121.988525,341.992371 
	C122.150986,342.051697 122.313446,342.111023 122.717896,342.263611 
	C128.377792,351.139313 136.470566,356.025177 146.591812,358.564331 
	C132.879303,358.844696 118.875999,358.940399 104.403168,359.106476 
	C93.512939,359.466583 83.633629,357.744537 75.435844,350.730927 
	C65.238449,342.006561 60.898502,330.865570 63.676243,317.685699 
	C66.750191,303.100494 76.129898,294.239929 90.866371,290.470032 
	C97.480904,290.166687 103.784531,290.065918 110.554749,289.899597 
z"/>
<path fill="#CBC3C9" opacity="1.000000" stroke="none" 
	d="
M86.621704,238.122040 
	C81.408272,249.747269 81.031174,261.314728 87.077164,273.236603 
	C78.871750,273.467499 70.462486,274.203156 62.325329,273.038177 
	C52.672009,271.656158 46.885899,262.736816 48.033840,253.370605 
	C49.096466,244.700500 56.890381,238.054840 66.166191,238.000732 
	C72.827721,237.961884 79.489861,238.029297 86.621704,238.122040 
z"/>
<path fill="#223279" opacity="1.000000" stroke="none" 
	d="
M94.262718,221.253876 
	C95.085594,221.141037 96.185783,221.214554 97.574173,221.449799 
	C96.754921,221.554398 95.647476,221.497299 94.262718,221.253876 
z"/>
<path fill="#223279" opacity="1.000000" stroke="none" 
	d="
M104.383408,221.736725 
	C104.583809,221.570923 105.085243,221.482361 105.747253,221.526367 
	C105.500046,221.710617 105.092247,221.762299 104.383408,221.736725 
z"/>
<path fill="#FE91A1" opacity="1.000000" stroke="none" 
	d="
M305.085388,161.211334 
	C302.774078,161.196655 300.944946,161.256180 299.125305,161.151215 
	C295.511017,160.942719 293.661957,158.889908 293.740234,155.344269 
	C293.813324,152.034683 295.668854,149.966064 299.010986,149.933945 
	C310.291840,149.825562 321.574463,149.849121 332.856049,149.898468 
	C336.458191,149.914230 338.590881,152.114426 338.584412,155.484070 
	C338.577362,159.132050 336.269165,161.188171 332.450134,161.190674 
	C323.490723,161.196548 314.531281,161.204224 305.085388,161.211334 
z"/>
<path fill="#FE90A1" opacity="1.000000" stroke="none" 
	d="
M300.851868,178.101288 
	C301.504059,174.015167 304.002899,172.856186 307.363617,172.855484 
	C313.194122,172.854294 319.024628,172.857864 324.855133,172.852188 
	C328.817505,172.848328 331.334259,174.569443 331.247711,178.759827 
	C331.165863,182.721802 328.615906,184.240463 324.936737,184.245819 
	C318.939697,184.254547 312.942261,184.283783 306.945770,184.226288 
	C303.226898,184.190643 300.967560,182.452179 300.851868,178.101288 
z"/>
<path fill="#4EA9F4" opacity="1.000000" stroke="none" 
	d="
M395.578979,160.610535 
	C389.967896,161.753769 384.772339,162.808258 379.567352,163.813995 
	C375.692719,164.562698 372.349365,163.749008 371.408417,159.469818 
	C370.436584,155.050201 373.468323,153.096008 377.192322,152.316833 
	C387.406464,150.179718 397.647705,148.168289 407.896179,146.200867 
	C411.658539,145.478622 414.681641,146.784317 415.526855,150.707291 
	C416.412964,154.820190 413.668365,156.850113 410.122375,157.681763 
	C405.448456,158.777939 400.704376,159.575119 395.578979,160.610535 
z"/>
<path fill="#4EA9F5" opacity="1.000000" stroke="none" 
	d="
M412.319641,172.920883 
	C413.395966,178.702316 412.158234,180.767365 407.094543,181.826584 
	C401.577118,182.980713 396.039673,184.059662 390.479492,184.981583 
	C386.858368,185.581985 383.659546,184.840271 382.978088,180.519989 
	C382.328552,176.402054 384.673096,174.408447 388.452698,173.649338 
	C394.143341,172.506439 399.788025,171.003525 405.531616,170.325180 
	C407.604462,170.080383 409.906067,171.772369 412.319641,172.920883 
z"/>
<path fill="#C4C6C6" opacity="1.000000" stroke="none" 
	d="
M121.871231,341.652985 
	C114.011948,342.002838 106.016312,342.362732 98.063957,341.929047 
	C89.491890,341.461548 82.996689,333.547913 83.000587,324.476288 
	C83.004494,315.381226 89.452339,307.582153 98.089798,307.042877 
	C105.716759,306.566681 113.389984,306.831390 121.495659,306.878235 
	C116.019814,318.396271 115.607643,329.836334 121.871231,341.652985 
z"/>
<path fill="#BDBFC2" opacity="1.000000" stroke="none" 
	d="
M122.512161,169.037903 
	C122.974960,168.980591 123.196823,169.293121 123.241829,169.479294 
	C117.602211,175.151642 116.858055,182.365692 117.518921,189.447372 
	C117.983948,194.430588 120.363876,199.235123 121.984314,204.460693 
	C114.433716,204.872864 106.780792,205.177017 99.143211,204.954422 
	C90.028267,204.688751 82.912697,196.542221 82.943352,186.929031 
	C82.974777,177.075073 90.307716,169.509293 100.591469,169.137589 
	C107.735275,168.879364 114.896126,169.092606 122.512161,169.037903 
z"/>
</svg>